<svg width="120" height="30" viewBox="0 0 120 30" fill="none" xmlns="http://www.w3.org/2000/svg">
<g id="fresh-prep-logo.svg">
<path id="Vector" d="M4.36421 6.04849C4.36421 3.92971 5.0812 1.75511 8.22825 1.75511C8.89693 1.76612 9.55974 1.88202 10.1925 2.09858V3.9061C10.1462 3.87265 10.0924 3.85125 10.0358 3.84384C9.553 3.63885 9.03395 3.533 8.50947 3.53257C6.98102 3.53257 6.32628 4.49858 6.32628 6.05708V8.82416H10.1903V10.5694H6.32628V23.353H4.36421V10.5694H1.93201V8.82416H4.36421V6.04849Z" fill="black"/>
<path id="Vector_2" d="M19.7968 10.7884C19.3337 10.5902 18.8364 10.4845 18.3328 10.4771C15.4004 10.4771 13.9986 13.6263 13.9986 16.3376V23.353H12.0344V8.85422H13.8419L13.9664 11.353H14.0286C14.458 10.4814 15.4626 8.70395 18.146 8.70395C18.7003 8.6926 19.2542 8.74446 19.7968 8.85851V10.7884Z" fill="black"/>
<path id="Vector_3" d="M23.3517 15.5283C23.6007 21.7644 27.8726 21.919 28.5896 21.919C31.303 21.919 33.2673 19.8624 34.1088 18.9887V21.3501C33.0483 22.1594 31.054 23.6879 28.4329 23.6879C24.7234 23.6964 21.2308 20.7984 21.2308 16.1208C21.2308 11.7866 24.3177 8.5129 28.2462 8.5129C29.2328 8.49965 30.2064 8.73907 31.0744 9.20838C31.9424 9.67769 32.6758 10.3613 33.205 11.1941C34.2955 12.8471 34.3578 14.2489 34.39 15.5283H23.3517ZM32.1123 13.8753C31.4576 10.1959 28.4973 10.1959 28.1217 10.1959C25.7839 10.1959 24.3499 11.7866 23.6007 13.8753H32.1123Z" fill="black"/>
<path id="Vector_4" d="M36.3843 19.7358C39.0032 21.8567 41.0619 21.919 41.809 21.919C44.0544 21.919 45.6451 20.631 45.6451 19.3429C45.6472 18.9415 45.503 18.553 45.2394 18.2503C44.8337 17.7522 43.3997 17.1898 41.8047 16.8785C39.658 16.4492 36.4122 15.539 36.4122 12.7011C36.4122 10.2388 38.7735 8.52362 41.9614 8.52362C42.5839 8.52362 44.8916 8.55367 46.9503 9.98766V12.349C45.5464 11.134 43.8011 10.2925 41.9292 10.2925C40.2118 10.2925 38.531 11.164 38.531 12.5358C38.5244 12.9284 38.6697 13.3083 38.9367 13.5963C39.366 14.1587 40.9632 14.7512 42.6784 15.1247C45.2973 15.6549 47.9163 16.5587 47.9163 19.1454C47.9163 21.5068 45.5549 23.6986 41.9056 23.6986C39.9537 23.6919 38.0424 23.141 36.3864 22.1079L36.3843 19.7358Z" fill="black"/>
<path id="Vector_5" d="M52.2547 2.09V11.4431H52.317C52.8472 10.4771 54.0944 8.51289 56.9624 8.51289C59.7681 8.51289 62.0136 10.1637 62.0136 13.7508V23.353H60.0494V14.0299C60.0494 11.8167 58.7614 10.2904 56.8293 10.2904C54.0236 10.2904 52.2461 12.9394 52.2461 15.8395V23.353H50.2819V2.09H52.2547Z" fill="black"/>
<path id="Vector_6" d="M67.8891 27.9361H66.0172V8.85422H67.7646L67.8569 11.4753H67.9191C69.0096 9.57336 70.508 8.51289 72.7513 8.51289C76.3685 8.51289 79.112 11.6621 79.112 15.9641C79.112 20.515 75.9327 23.6921 72.2211 23.6921C70.1324 23.6921 68.7864 22.6939 67.8891 22.0392V27.9361ZM67.8891 19.9548C68.4816 20.515 69.9155 21.919 72.0665 21.919C74.9044 21.919 77.0039 19.27 77.0039 15.8696C77.0039 12.6496 75.132 10.2882 72.4508 10.2882C69.6129 10.2882 67.8998 13.2485 67.8998 15.6184L67.8891 19.9548Z" fill="black"/>
<path id="Vector_7" d="M88.903 10.7884C88.4393 10.5899 87.9412 10.4842 87.4368 10.4771C84.5066 10.4771 83.1027 13.6263 83.1027 16.3376V23.353H81.1449V8.85421H82.9546L83.0769 11.353H83.1392C83.5685 10.4814 84.5732 8.70394 87.2544 8.70394C87.8094 8.69263 88.364 8.74449 88.9073 8.8585L88.903 10.7884Z" fill="black"/>
<path id="Vector_8" d="M92.4558 15.5283C92.707 21.7644 96.9767 21.919 97.6937 21.919C100.407 21.919 102.371 19.8624 103.213 18.9887V21.3501C102.152 22.1594 100.158 23.6879 97.5392 23.6879C93.8276 23.6879 90.337 20.7877 90.337 16.1122C90.337 11.778 93.424 8.50431 97.3524 8.50431C98.3387 8.49143 99.3119 8.73102 100.179 9.20032C101.047 9.66961 101.78 10.353 102.309 11.1855C103.4 12.8385 103.464 14.2403 103.494 15.5197L92.4558 15.5283ZM101.219 13.8753C100.564 10.1959 97.6014 10.1959 97.2279 10.1959C94.888 10.1959 93.454 11.7866 92.707 13.8753H101.219Z" fill="black"/>
<path id="Vector_9" d="M107.704 27.9361H105.832V8.85422H107.579L107.672 11.4753H107.734C108.826 9.57336 110.323 8.51289 112.568 8.51289C116.183 8.51289 118.929 11.6621 118.929 15.9641C118.929 20.515 115.747 23.6921 112.038 23.6921C109.949 23.6921 108.603 22.6939 107.704 22.0392V27.9361ZM107.704 19.9548C108.296 20.515 109.73 21.919 111.881 21.919C114.719 21.919 116.819 19.27 116.819 15.8696C116.819 12.6496 114.947 10.2882 112.265 10.2882C109.43 10.2882 107.714 13.2485 107.714 15.6184L107.704 19.9548Z" fill="black"/>
</g>
</svg>
